<?xml version="1.0" encoding="utf-8"?><svg xmlns="http://www.w3.org/2000/svg" xmlns:xlink="http://www.w3.org/1999/xlink"><symbol viewBox="0 0 14 9" id="icon-arrow" xmlns="http://www.w3.org/2000/svg"><path d="M0.000366568 5.56289L0.000366686 4.41718L10.5481 4.41718L7.82863 2.12577L8.5085 0.98007L13.2676 4.99004L8.5085 9L7.82863 7.8543L10.5481 5.56289L0.000366568 5.56289Z"/></symbol><symbol viewBox="0 0 25 12" id="icon-burger" xmlns="http://www.w3.org/2000/svg"><rect width="25" height="2"/><rect y="10" width="25" height="2"/><rect y="5" width="20" height="2"/></symbol><symbol viewBox="0 0 18 18" id="icon-call" xmlns="http://www.w3.org/2000/svg"><path d="M17.4853 1.87043L17.4556 1.85186L13.6967 0L9.63962 5.40945L11.5062 7.89837C11.4503 8.83701 11.0523 9.72259 10.3874 10.3875C9.72251 11.0524 8.83692 11.4504 7.89829 11.5062L5.40941 9.63967L0 13.6967L1.83645 17.4241L1.8519 17.4556L1.87052 17.4853C1.96852 17.6432 2.10531 17.7734 2.26786 17.8635C2.43041 17.9536 2.61331 18.0006 2.79916 18H3.76908C5.63792 18 7.48845 17.6319 9.21503 16.9167C10.9416 16.2016 12.5104 15.1533 13.8319 13.8318C15.1533 12.5104 16.2016 10.9416 16.9167 9.21499C17.6319 7.48841 18 5.63787 18 3.76904V2.79908C18.0006 2.61323 17.9536 2.43033 17.8635 2.26778C17.7734 2.10523 17.6432 1.96844 17.4853 1.87043ZM16.6109 3.76904C16.6109 10.8501 10.8501 16.6109 3.76908 16.6109H2.98426L1.75553 14.1165L5.40967 11.3759L7.4441 12.9017H7.6756C9.06125 12.9001 10.3897 12.349 11.3695 11.3692C12.3493 10.3894 12.9004 9.06095 12.902 7.6753V7.4438L11.3762 5.40941L14.1165 1.75549L16.6109 2.98443V3.76904Z"/></symbol><symbol viewBox="0 0 19 14" id="icon-email" xmlns="http://www.w3.org/2000/svg"><path clip-rule="evenodd" d="M0 0.7L0.678571 0H18.3214L19 0.7V13.3L18.3214 14H0.678571L0 13.3V0.7ZM1.35714 2.149V12.6H17.6429V2.1504L9.92071 8.26H9.09286L1.35714 2.149ZM16.3264 1.4H2.67357L9.5 6.8166L16.3264 1.4Z"/></symbol></svg>